<svg xmlns="http://www.w3.org/2000/svg" width="21" height="19" viewBox="0 0 21 19" fill="none">
  <mask id="mask0_2051_29" style="mask-type:luminance" maskUnits="userSpaceOnUse" x="0" y="0" width="21" height="19">
    <path d="M20.6399 0.643799H0.389946V18.6438H20.6399V0.643799Z" fill="white"/>
  </mask>
  <g mask="url(#mask0_2051_29)">
    <path d="M16.005 4.61C14.9277 4.11567 13.7724 3.75146 12.5644 3.54287C12.5424 3.53884 12.5205 3.5489 12.5091 3.56902C12.3605 3.83329 12.196 4.17804 12.0807 4.44902C10.7815 4.25451 9.48895 4.25451 8.21637 4.44902C8.1011 4.17202 7.93054 3.83329 7.7813 3.56902C7.76996 3.54957 7.74799 3.53951 7.72599 3.54287C6.51872 3.7508 5.36342 4.115 4.2854 4.61C4.27607 4.61403 4.26807 4.62074 4.26276 4.62945C2.07141 7.90329 1.4711 11.0967 1.76559 14.2504C1.76692 14.2659 1.77559 14.2806 1.78758 14.29C3.23337 15.3518 4.63387 15.9964 6.00836 16.4236C6.03036 16.4303 6.05367 16.4223 6.06767 16.4042C6.39281 15.9601 6.68264 15.492 6.93114 14.9996C6.9458 14.9708 6.9318 14.9366 6.90183 14.9252C6.44211 14.7508 6.00437 14.5382 5.58329 14.2967C5.54998 14.2773 5.54731 14.2296 5.57795 14.2068C5.66656 14.1404 5.7552 14.0713 5.83981 14.0016C5.85512 13.9888 5.87645 13.9862 5.89445 13.9942C8.66076 15.2572 11.6556 15.2572 14.3893 13.9942C14.4073 13.9855 14.4286 13.9882 14.4446 14.0009C14.5292 14.0707 14.6179 14.1404 14.7071 14.2068C14.7378 14.2296 14.7358 14.2773 14.7025 14.2967C14.2814 14.5429 13.8436 14.7508 13.3833 14.9245C13.3533 14.9359 13.3399 14.9708 13.3546 14.9996C13.6084 15.4913 13.8983 15.9595 14.2174 16.4035C14.2307 16.4223 14.2547 16.4303 14.2767 16.4236C15.6579 15.9964 17.0584 15.3518 18.5042 14.29C18.5168 14.2806 18.5248 14.2665 18.5262 14.2511C18.8786 10.605 17.9358 7.43781 16.027 4.63012C16.0223 4.62074 16.0143 4.61403 16.005 4.61ZM7.34424 12.3301C6.51139 12.3301 5.82514 11.5655 5.82514 10.6265C5.82514 9.68744 6.49808 8.92282 7.34424 8.92282C8.19704 8.92282 8.87665 9.69415 8.86331 10.6265C8.86331 11.5655 8.19038 12.3301 7.34424 12.3301ZM12.9608 12.3301C12.128 12.3301 11.4418 11.5655 11.4418 10.6265C11.4418 9.68744 12.1147 8.92282 12.9608 8.92282C13.8137 8.92282 14.4932 9.69415 14.4799 10.6265C14.4799 11.5655 13.8137 12.3301 12.9608 12.3301Z" fill="white"/>
  </g>
</svg>