<svg xmlns="http://www.w3.org/2000/svg" width="25" height="25" viewBox="0 0 25 25" fill="none">
  <path fill-rule="evenodd" clip-rule="evenodd" d="M5.56841 11.8045C9.70614 9.99011 12.472 8.81739 13.866 8.24209C17.8046 6.6047 18.6233 6.31705 19.1543 6.29492C19.265 6.29492 19.5305 6.31705 19.7075 6.44981C19.8403 6.56044 19.8845 6.71533 19.9066 6.82597C19.9288 6.9366 19.9509 7.18 19.9288 7.37914C19.7075 9.61396 18.8003 15.0793 18.3135 17.5796C18.1144 18.6417 17.7161 18.9958 17.3399 19.04C16.5212 19.1064 15.8795 18.4868 15.083 17.9779C13.8439 17.1592 13.1358 16.6503 11.9188 15.8537C10.5248 14.9244 11.432 14.4155 12.2286 13.5968C12.4277 13.3755 16.0787 10.0786 16.1451 9.76884C16.1451 9.72459 16.1672 9.59183 16.0787 9.52545C15.9902 9.45907 15.8795 9.48119 15.791 9.50332C15.6583 9.52545 13.6669 10.8531 9.79465 13.464C9.21935 13.8623 8.71043 14.0393 8.24577 14.0393C7.73685 14.0393 6.76326 13.7517 6.03308 13.5083C5.148 13.2206 4.43994 13.0658 4.50632 12.579C4.55058 12.3356 4.90461 12.07 5.56841 11.8045Z" fill="white"/>
</svg>